<svg width="25" height="25" viewBox="0 0 25 25" fill="none" xmlns="http://www.w3.org/2000/svg">
<path fill-rule="evenodd" clip-rule="evenodd" d="M22.8056 15.0716C24.2259 9.37919 20.7612 3.61485 15.0687 2.19411C9.37829 0.773905 3.61475 4.23834 2.19405 9.93121C0.773751 15.6225 4.23542 21.3854 9.92878 22.8058C15.6221 24.2262 21.3877 20.762 22.8056 15.0716ZM9.4749 24.6251C16.1727 26.2961 22.9565 22.2208 24.625 15.525C26.2962 8.82696 22.219 2.04616 15.5227 0.374897C8.8264 -1.29637 2.04597 2.78079 0.374832 9.47721C-1.29631 16.1736 2.7771 22.9541 9.4749 24.6251Z" fill="#8E87DB"/>
<path d="M15.0692 2.19411C20.7617 3.61486 24.2264 9.3792 22.8062 15.0716C21.3882 20.762 15.6226 24.2262 9.92929 22.8058C4.23593 21.3854 0.774262 15.6225 2.19456 9.93122C3.61526 4.23834 9.3788 0.773908 15.0692 2.19411Z" fill="white"/>
<path d="M16.8758 12.7272L12.497 5.4585L8.16211 12.7272L12.497 15.223L16.8758 12.7272Z" fill="#8E87DB"/>
<path d="M12.497 19.7331L8.16211 13.5591L12.497 16.0988L16.7444 13.5591L12.497 19.7331Z" fill="#8E87DB"/>
</svg>
